<svg width="24" height="24" viewBox="0 0 24 24" fill="none" xmlns="http://www.w3.org/2000/svg">
<path d="M10.7976 2.8656C11.128 2.56876 11.5564 2.40455 12.0006 2.40455C12.4447 2.40455 12.8732 2.56876 13.2036 2.8656L19.8036 8.796C19.9912 8.96475 20.1413 9.17107 20.244 9.40158C20.3468 9.63209 20.3999 9.88163 20.4 10.134V18.6C20.4 19.0774 20.2103 19.5352 19.8728 19.8728C19.5352 20.2104 19.0774 20.4 18.6 20.4H15.6C15.1226 20.4 14.6647 20.2104 14.3272 19.8728C13.9896 19.5352 13.8 19.0774 13.8 18.6V14.4C13.8 14.2409 13.7368 14.0883 13.6242 13.9757C13.5117 13.8632 13.3591 13.8 13.2 13.8H10.8C10.6408 13.8 10.4882 13.8632 10.3757 13.9757C10.2632 14.0883 10.2 14.2409 10.2 14.4V18.6C10.2 19.0774 10.0103 19.5352 9.67277 19.8728C9.3352 20.2104 8.87737 20.4 8.39998 20.4H5.39998C4.92259 20.4 4.46475 20.2104 4.12718 19.8728C3.78962 19.5352 3.59998 19.0774 3.59998 18.6V10.134C3.59998 9.624 3.81598 9.138 4.19758 8.796L10.7976 2.8656ZM12.4008 3.7584C12.2907 3.65956 12.1479 3.60489 12 3.60489C11.852 3.60489 11.7093 3.65956 11.5992 3.7584L4.99918 9.6888C4.93665 9.74492 4.88661 9.81355 4.8523 9.89024C4.81798 9.96694 4.80016 10.05 4.79998 10.134V18.6C4.79998 18.7591 4.86319 18.9117 4.97571 19.0243C5.08823 19.1368 5.24085 19.2 5.39998 19.2H8.39998C8.55911 19.2 8.71172 19.1368 8.82424 19.0243C8.93676 18.9117 8.99998 18.7591 8.99998 18.6V14.4C8.99998 13.9226 9.18962 13.4648 9.52718 13.1272C9.86475 12.7896 10.3226 12.6 10.8 12.6H13.2C13.6774 12.6 14.1352 12.7896 14.4728 13.1272C14.8103 13.4648 15 13.9226 15 14.4V18.6C15 18.7591 15.0632 18.9117 15.1757 19.0243C15.2882 19.1368 15.4408 19.2 15.6 19.2H18.6C18.7591 19.2 18.9117 19.1368 19.0242 19.0243C19.1368 18.9117 19.2 18.7591 19.2 18.6V10.134C19.1998 10.05 19.182 9.96694 19.1477 9.89024C19.1133 9.81355 19.0633 9.74492 19.0008 9.6888L12.4008 3.7584Z" fill="#FEFEFE"/>
</svg>
