<svg width="24" height="18" viewBox="0 0 24 18" fill="none" xmlns="http://www.w3.org/2000/svg">
<path fill-rule="evenodd" clip-rule="evenodd" d="M12 2.25C13.2131 2.25 14.4153 2.2957 15.6052 2.38545C17.2196 2.50723 18.4928 3.78038 18.6146 5.39481C18.6586 5.97827 18.692 6.56471 18.7146 7.15395L17.0303 5.46967C16.7374 5.17678 16.2626 5.17678 15.9697 5.46967C15.6768 5.76256 15.6768 6.23744 15.9697 6.53033L18.9697 9.53033C19.2626 9.82322 19.7374 9.82322 20.0303 9.53033L23.0303 6.53033C23.3232 6.23744 23.3232 5.76256 23.0303 5.46967C22.7374 5.17678 22.2626 5.17678 21.9697 5.46967L20.2181 7.2212C20.1948 6.57151 20.1588 5.92503 20.1103 5.28199C19.9327 2.92812 18.0719 1.06725 15.718 0.889699C14.4907 0.797119 13.2508 0.75 12 0.75C10.7492 0.75 9.50933 0.797119 8.28199 0.889699C5.92812 1.06725 4.06725 2.92812 3.8897 5.28199C3.87284 5.50552 3.85748 5.72948 3.84365 5.95384C3.81815 6.36727 4.13264 6.72308 4.54606 6.74858C4.95949 6.77407 5.31531 6.45959 5.3408 6.04616C5.35422 5.82864 5.3691 5.61152 5.38545 5.39481C5.50723 3.78038 6.78038 2.50723 8.39481 2.38545C9.58465 2.2957 10.7869 2.25 12 2.25ZM5.03033 8.46967C4.73744 8.17678 4.26256 8.17678 3.96967 8.46967L0.96967 11.4697C0.676777 11.7626 0.676777 12.2374 0.96967 12.5303C1.26256 12.8232 1.73744 12.8232 2.03033 12.5303L3.78186 10.7788C3.80517 11.4285 3.84119 12.075 3.8897 12.718C4.06725 15.0719 5.92812 16.9327 8.28199 17.1103C9.50933 17.2029 10.7492 17.25 12 17.25C13.2508 17.25 14.4907 17.2029 15.718 17.1103C18.0719 16.9327 19.9327 15.0719 20.1103 12.718C20.1272 12.4945 20.1425 12.2705 20.1564 12.0462C20.1818 11.6327 19.8674 11.2769 19.4539 11.2514C19.0405 11.2259 18.6847 11.5404 18.6592 11.9538C18.6458 12.1714 18.6309 12.3885 18.6146 12.6052C18.4928 14.2196 17.2196 15.4928 15.6052 15.6146C14.4153 15.7043 13.2131 15.75 12 15.75C10.7869 15.75 9.58465 15.7043 8.39481 15.6146C6.78038 15.4928 5.50723 14.2196 5.38545 12.6052C5.34144 12.0217 5.30802 11.4353 5.28539 10.8461L6.96967 12.5303C7.26256 12.8232 7.73744 12.8232 8.03033 12.5303C8.32322 12.2374 8.32322 11.7626 8.03033 11.4697L5.03033 8.46967Z" fill="#FEFEFE"/>
</svg>