<svg width="24" height="24" viewBox="0 0 24 24" fill="none" xmlns="http://www.w3.org/2000/svg">
<path d="M10.55 2.53301C10.9558 2.19104 11.4693 2.00348 12 2.00348C12.5307 2.00348 13.0442 2.19104 13.45 2.53301L20.2 8.22801C20.708 8.65501 21 9.28401 21 9.94801V19.75C21 20.2141 20.8156 20.6593 20.4874 20.9874C20.1592 21.3156 19.7141 21.5 19.25 21.5H16.25C15.7859 21.5 15.3408 21.3156 15.0126 20.9874C14.6844 20.6593 14.5 20.2141 14.5 19.75V14.75C14.5 14.5511 14.421 14.3603 14.2803 14.2197C14.1397 14.079 13.9489 14 13.75 14H10.25C10.0511 14 9.86032 14.079 9.71967 14.2197C9.57902 14.3603 9.5 14.5511 9.5 14.75V19.75C9.5 20.2141 9.31563 20.6593 8.98744 20.9874C8.65925 21.3156 8.21413 21.5 7.75 21.5H4.75C4.52019 21.5 4.29262 21.4547 4.0803 21.3668C3.86798 21.2789 3.67507 21.15 3.51256 20.9874C3.35006 20.8249 3.22116 20.632 3.13321 20.4197C3.04527 20.2074 3 19.9798 3 19.75V9.94701C3 9.28401 3.292 8.65501 3.8 8.22701L10.55 2.53301Z" fill="#FEFEFE"/>
</svg>
